<?xml version="1.0" ?><svg viewBox="0 0 64 64" xmlns="http://www.w3.org/2000/svg"><g id="outline"><path d="M56,20v8H51a5.0059,5.0059,0,0,0-5,5v3H15a6.9962,6.9962,0,0,0-6.9215,6H8V34H2V62H8V52H56V62h6V20ZM48,33a3.0033,3.0033,0,0,1,3-3h5V42H48ZM11.47,39.4639A4.9286,4.9286,0,0,1,15,38H46v4H10.0991A4.9209,4.9209,0,0,1,11.47,39.4639ZM6,60H4V36H6V60ZM8,50V44H56v6ZM60,60H58V22h2Z"/><path d="M29,25h6V19h6V13H35V7H29v6H23v6h6Zm-4-8V15h6V9h2v6h6v2H33v6H31V17Z"/><path d="M32,30A14,14,0,1,0,18,16,14.0158,14.0158,0,0,0,32,30ZM32,4A12,12,0,1,1,20,16,12.0134,12.0134,0,0,1,32,4Z"/></g></svg>