<?xml version="1.0" ?><svg viewBox="0 0 64 64" xmlns="http://www.w3.org/2000/svg"><title/><g data-name="Layer 13" id="Layer_13"><path d="M53,4H45.816a2.994,2.994,0,0,0-1.957-1.859A2.993,2.993,0,0,0,41,0H23a2.993,2.993,0,0,0-2.859,2.141A2.994,2.994,0,0,0,18.184,4H11A3,3,0,0,0,8,7V33a1,1,0,0,0,2,0V7a1,1,0,0,1,1-1h7V9a3,3,0,0,0,3,3H43a3,3,0,0,0,3-3V6h7a1,1,0,0,1,1,1v8a1,1,0,0,0,2,0V7A3,3,0,0,0,53,4ZM23,2H41a1,1,0,0,1,0,2H23a1,1,0,0,1,0-2ZM44,9a1,1,0,0,1-1,1H21a1,1,0,0,1-1-1V5a1,1,0,0,1,.3-.713A3,3,0,0,0,23,6H41a2.994,2.994,0,0,0,2.7-1.713A1,1,0,0,1,44,5Z"/><path d="M55,18H52V11a3,3,0,0,0-3-3,1,1,0,0,0,0,2,1,1,0,0,1,1,1v7H43a1,1,0,0,0-1,1v8a1,1,0,0,0,1,1h1V58H15a1,1,0,0,1-1-1V11a1,1,0,0,1,1-1,1,1,0,0,0,0-2,3,3,0,0,0-3,3V57a3,3,0,0,0,3,3H44.1a4.954,4.954,0,0,0,.925,2H11a1,1,0,0,1-1-1V37a1,1,0,0,0-2,0V61a3,3,0,0,0,3,3H49a5.006,5.006,0,0,0,5-5V28h1a1,1,0,0,0,1-1V19A1,1,0,0,0,55,18ZM52,56H46V55h4a1,1,0,0,0,1-1V49a1,1,0,0,0-1-1H46V47h4a1,1,0,0,0,0-2H46V44h2a1,1,0,0,0,0-2H46V41h2a1,1,0,0,0,0-2H46V38h2a1,1,0,0,0,0-2H46V35h4a1,1,0,0,0,0-2H46V32h6Zm-6-6h3v3H46Zm3,12a3,3,0,0,1-3-3V58h6v1A3,3,0,0,1,49,62Zm3-32H46V28h6Zm2-4H52V23a1,1,0,0,0-2,0v3H48V23a1,1,0,0,0-2,0v3H44V20H54Z"/><path d="M34,14H30a1,1,0,0,0-1,1v2H27a1,1,0,0,0-1,1v4a1,1,0,0,0,1,1h2v2a1,1,0,0,0,1,1h4a1,1,0,0,0,1-1V23h2a1,1,0,0,0,1-1V18a1,1,0,0,0-1-1H35V15A1,1,0,0,0,34,14Zm2,5v2H34a1,1,0,0,0-1,1v2H31V22a1,1,0,0,0-1-1H28V19h2a1,1,0,0,0,1-1V16h2v2a1,1,0,0,0,1,1Z"/><path d="M22,29a1,1,0,0,0,1,1H41a1,1,0,0,0,0-2H23A1,1,0,0,0,22,29Z"/><path d="M18,33a1,1,0,0,0,1,1H41a1,1,0,0,0,0-2H19A1,1,0,0,0,18,33Z"/><path d="M19,38H41a1,1,0,0,0,0-2H19a1,1,0,0,0,0,2Z"/><path d="M19,42H41a1,1,0,0,0,0-2H19a1,1,0,0,0,0,2Z"/><path d="M19,46H37a1,1,0,0,0,0-2H19a1,1,0,0,0,0,2Z"/><path d="M41,48H25a1,1,0,0,0-1,1v6a1,1,0,0,0,1,1H41a1,1,0,0,0,1-1V49A1,1,0,0,0,41,48Zm-1,6H26V50H40Z"/></g></svg>