<?xml version="1.0" ?><svg id="Capa_1" style="enable-background:new 0 0 200 200;" version="1.1" viewBox="0 0 200 200" xml:space="preserve" xmlns="http://www.w3.org/2000/svg" xmlns:xlink="http://www.w3.org/1999/xlink"><g><path d="M167.8,169.5H31.5c-2.1,0-3.8-1.7-3.8-3.8V52c0-2.1,1.7-3.8,3.8-3.8h136.4c2.1,0,3.8,1.7,3.8,3.8v113.6   C171.7,167.8,170,169.5,167.8,169.5z M35.3,161.8H164v-106H35.3V161.8z"/><g><path d="M45.2,59c-2.1,0-3.8-1.7-3.8-3.8v-6.4c0-2.1,1.7-3.8,3.8-3.8s3.8,1.7,3.8,3.8v6.4C49,57.3,47.3,59,45.2,59z"/><path d="M57.3,59c-2.1,0-3.8-1.7-3.8-3.8v-6.4c0-2.1,1.7-3.8,3.8-3.8s3.8,1.7,3.8,3.8v6.4C61.1,57.3,59.4,59,57.3,59z"/><path d="M69.4,59c-2.1,0-3.8-1.7-3.8-3.8v-6.4c0-2.1,1.7-3.8,3.8-3.8c2.1,0,3.8,1.7,3.8,3.8v6.4C73.2,57.3,71.5,59,69.4,59z"/><path d="M81.5,59c-2.1,0-3.8-1.7-3.8-3.8v-6.4c0-2.1,1.7-3.8,3.8-3.8s3.8,1.7,3.8,3.8v6.4C85.3,57.3,83.6,59,81.5,59z"/><path d="M93.6,59c-2.1,0-3.8-1.7-3.8-3.8v-6.4c0-2.1,1.7-3.8,3.8-3.8s3.8,1.7,3.8,3.8v6.4C97.4,57.3,95.7,59,93.6,59z"/><path d="M105.7,59c-2.1,0-3.8-1.7-3.8-3.8v-6.4c0-2.1,1.7-3.8,3.8-3.8c2.1,0,3.8,1.7,3.8,3.8v6.4C109.5,57.3,107.8,59,105.7,59z"/><path d="M117.8,59c-2.1,0-3.8-1.7-3.8-3.8v-6.4c0-2.1,1.7-3.8,3.8-3.8s3.8,1.7,3.8,3.8v6.4C121.6,57.3,119.9,59,117.8,59z"/><path d="M129.9,59c-2.1,0-3.8-1.7-3.8-3.8v-6.4c0-2.1,1.7-3.8,3.8-3.8s3.8,1.7,3.8,3.8v6.4C133.8,57.3,132,59,129.9,59z"/><path d="M142,59c-2.1,0-3.8-1.7-3.8-3.8v-6.4c0-2.1,1.7-3.8,3.8-3.8s3.8,1.7,3.8,3.8v6.4C145.9,57.3,144.2,59,142,59z"/><path d="M154.1,59c-2.1,0-3.8-1.7-3.8-3.8v-6.4c0-2.1,1.7-3.8,3.8-3.8s3.8,1.7,3.8,3.8v6.4C158,57.3,156.3,59,154.1,59z"/></g><path d="M63.8,79.4H45.2c-2.1,0-3.8-1.7-3.8-3.8s1.7-3.8,3.8-3.8h18.6c2.1,0,3.8,1.7,3.8,3.8S65.9,79.4,63.8,79.4z"/><path d="M152.5,79.4H81c-2.1,0-3.8-1.7-3.8-3.8s1.7-3.8,3.8-3.8h71.5c2.1,0,3.8,1.7,3.8,3.8S154.7,79.4,152.5,79.4z"/><path d="M57.4,98.4h-3.2c-1.1,0-1.9-0.9-1.9-1.9s0.9-1.9,1.9-1.9h3.2c1.1,0,1.9,0.9,1.9,1.9S58.5,98.4,57.4,98.4z"/><path d="M72,98.4h-3.2c-1.1,0-1.9-0.9-1.9-1.9s0.9-1.9,1.9-1.9H72c1.1,0,1.9,0.9,1.9,1.9S73.1,98.4,72,98.4z"/><path d="M86.6,98.4h-3.2c-1.1,0-1.9-0.9-1.9-1.9s0.9-1.9,1.9-1.9h3.2c1.1,0,1.9,0.9,1.9,1.9S87.7,98.4,86.6,98.4z"/><path d="M101.2,98.4H98c-1.1,0-1.9-0.9-1.9-1.9s0.9-1.9,1.9-1.9h3.2c1.1,0,1.9,0.9,1.9,1.9S102.3,98.4,101.2,98.4z"/><path d="M115.8,98.4h-3.2c-1.1,0-1.9-0.9-1.9-1.9s0.9-1.9,1.9-1.9h3.2c1.1,0,1.9,0.9,1.9,1.9S116.9,98.4,115.8,98.4z"/><path d="M130.4,98.4h-3.2c-1.1,0-1.9-0.9-1.9-1.9s0.9-1.9,1.9-1.9h3.2c1.1,0,1.9,0.9,1.9,1.9S131.5,98.4,130.4,98.4z"/><path d="M145,98.4h-3.2c-1.1,0-1.9-0.9-1.9-1.9s0.9-1.9,1.9-1.9h3.2c1.1,0,1.9,0.9,1.9,1.9S146.1,98.4,145,98.4z"/><path d="M57.4,111.7h-3.2c-1.1,0-1.9-0.9-1.9-1.9s0.9-1.9,1.9-1.9h3.2c1.1,0,1.9,0.9,1.9,1.9S58.5,111.7,57.4,111.7z"/><path d="M72,111.7h-3.2c-1.1,0-1.9-0.9-1.9-1.9s0.9-1.9,1.9-1.9H72c1.1,0,1.9,0.9,1.9,1.9S73.1,111.7,72,111.7z"/><path d="M86.6,111.7h-3.2c-1.1,0-1.9-0.9-1.9-1.9s0.9-1.9,1.9-1.9h3.2c1.1,0,1.9,0.9,1.9,1.9S87.7,111.7,86.6,111.7z"/><path d="M101.2,111.7H98c-1.1,0-1.9-0.9-1.9-1.9s0.9-1.9,1.9-1.9h3.2c1.1,0,1.9,0.9,1.9,1.9S102.3,111.7,101.2,111.7z"/><path d="M115.8,111.7h-3.2c-1.1,0-1.9-0.9-1.9-1.9s0.9-1.9,1.9-1.9h3.2c1.1,0,1.9,0.9,1.9,1.9S116.9,111.7,115.8,111.7z"/><path d="M130.4,111.7h-3.2c-1.1,0-1.9-0.9-1.9-1.9s0.9-1.9,1.9-1.9h3.2c1.1,0,1.9,0.9,1.9,1.9S131.5,111.7,130.4,111.7z"/><path d="M145,111.7h-3.2c-1.1,0-1.9-0.9-1.9-1.9s0.9-1.9,1.9-1.9h3.2c1.1,0,1.9,0.9,1.9,1.9S146.1,111.7,145,111.7z"/><path d="M57.4,124.9h-3.2c-1.1,0-1.9-0.9-1.9-1.9s0.9-1.9,1.9-1.9h3.2c1.1,0,1.9,0.9,1.9,1.9S58.5,124.9,57.4,124.9z"/><path d="M72,124.9h-3.2c-1.1,0-1.9-0.9-1.9-1.9s0.9-1.9,1.9-1.9H72c1.1,0,1.9,0.9,1.9,1.9S73.1,124.9,72,124.9z"/><path d="M86.6,124.9h-3.2c-1.1,0-1.9-0.9-1.9-1.9s0.9-1.9,1.9-1.9h3.2c1.1,0,1.9,0.9,1.9,1.9S87.7,124.9,86.6,124.9z"/><path d="M101.2,124.9H98c-1.1,0-1.9-0.9-1.9-1.9s0.9-1.9,1.9-1.9h3.2c1.1,0,1.9,0.9,1.9,1.9S102.3,124.9,101.2,124.9z"/><path d="M115.8,124.9h-3.2c-1.1,0-1.9-0.9-1.9-1.9s0.9-1.9,1.9-1.9h3.2c1.1,0,1.9,0.9,1.9,1.9S116.9,124.9,115.8,124.9z"/><path d="M130.4,124.9h-3.2c-1.1,0-1.9-0.9-1.9-1.9s0.9-1.9,1.9-1.9h3.2c1.1,0,1.9,0.9,1.9,1.9S131.5,124.9,130.4,124.9z"/><path d="M145,124.9h-3.2c-1.1,0-1.9-0.9-1.9-1.9s0.9-1.9,1.9-1.9h3.2c1.1,0,1.9,0.9,1.9,1.9S146.1,124.9,145,124.9z"/><path d="M57.4,138.1h-3.2c-1.1,0-1.9-0.9-1.9-1.9c0-1.1,0.9-1.9,1.9-1.9h3.2c1.1,0,1.9,0.9,1.9,1.9   C59.3,137.3,58.5,138.1,57.4,138.1z"/><path d="M72,138.1h-3.2c-1.1,0-1.9-0.9-1.9-1.9c0-1.1,0.9-1.9,1.9-1.9H72c1.1,0,1.9,0.9,1.9,1.9C73.9,137.3,73.1,138.1,72,138.1z"/><path d="M86.6,138.1h-3.2c-1.1,0-1.9-0.9-1.9-1.9c0-1.1,0.9-1.9,1.9-1.9h3.2c1.1,0,1.9,0.9,1.9,1.9   C88.5,137.3,87.7,138.1,86.6,138.1z"/><path d="M101.2,138.1H98c-1.1,0-1.9-0.9-1.9-1.9c0-1.1,0.9-1.9,1.9-1.9h3.2c1.1,0,1.9,0.9,1.9,1.9   C103.1,137.3,102.3,138.1,101.2,138.1z"/><path d="M57.4,151.4h-3.2c-1.1,0-1.9-0.9-1.9-1.9c0-1.1,0.9-1.9,1.9-1.9h3.2c1.1,0,1.9,0.9,1.9,1.9   C59.3,150.5,58.5,151.4,57.4,151.4z"/><path d="M72,151.4h-3.2c-1.1,0-1.9-0.9-1.9-1.9c0-1.1,0.9-1.9,1.9-1.9H72c1.1,0,1.9,0.9,1.9,1.9S73.1,151.4,72,151.4z"/><path d="M86.6,151.4h-3.2c-1.1,0-1.9-0.9-1.9-1.9c0-1.1,0.9-1.9,1.9-1.9h3.2c1.1,0,1.9,0.9,1.9,1.9S87.7,151.4,86.6,151.4z"/><path d="M115.8,138.1h-3.2c-1.1,0-1.9-0.9-1.9-1.9c0-1.1,0.9-1.9,1.9-1.9h3.2c1.1,0,1.9,0.9,1.9,1.9   C117.8,137.3,116.9,138.1,115.8,138.1z"/><path d="M130.4,138.1h-3.2c-1.1,0-1.9-0.9-1.9-1.9c0-1.1,0.9-1.9,1.9-1.9h3.2c1.1,0,1.9,0.9,1.9,1.9   C132.4,137.3,131.5,138.1,130.4,138.1z"/><path d="M145,138.1h-3.2c-1.1,0-1.9-0.9-1.9-1.9c0-1.1,0.9-1.9,1.9-1.9h3.2c1.1,0,1.9,0.9,1.9,1.9C147,137.3,146.1,138.1,145,138.1   z"/></g></svg>