<?xml version="1.0" ?><svg id="Layer_3" style="enable-background:new 0 0 64 64;" version="1.1" viewBox="0 0 64 64" xml:space="preserve" xmlns="http://www.w3.org/2000/svg" xmlns:xlink="http://www.w3.org/1999/xlink"><g><path d="M60,39c-1.302,0-2.402,0.839-2.816,2H42.816c-0.414-1.161-1.514-2-2.816-2c-1.366,0-2.509,0.923-2.87,2.174l-11.384,2.627   c-0.111-0.254-0.265-0.483-0.439-0.695L29,39.414V41h7v-2h-6.586l4.692-4.692C34.625,34.734,35.278,35,36,35c1.654,0,3-1.346,3-3   c0-0.753-0.289-1.435-0.749-1.962l2.612-3.265C41.214,26.918,41.597,27,42,27c1.38,0,2.533-0.941,2.882-2.212l12.398-3.542   C57.754,22.278,58.792,23,60,23c1.654,0,3-1.346,3-3s-1.346-3-3-3c-1.38,0-2.533,0.941-2.882,2.212l-12.398,3.542   C44.246,21.722,43.208,21,42,21h-9v2h6.184C39.072,23.314,39,23.648,39,24c0,0.519,0.144,1,0.377,1.427l-2.898,3.622   C36.323,29.023,36.164,29,36,29c-1.654,0-3,1.346-3,3c0,0.182,0.023,0.359,0.054,0.532L26.586,39H20v2h4.586l-1.054,1.054   C23.359,42.023,23.182,42,23,42c-1.654,0-3,1.346-3,3c0,0.149,0.023,0.292,0.044,0.435L14.697,49H11v2h0.697l-3.092,2.061   C8.41,53.021,8.207,53,8,53c-1.654,0-3,1.346-3,3s1.346,3,3,3c1.371,0,2.518-0.93,2.874-2.188l6.388-1.597   C17.73,56.264,18.779,57,20,57c1.354,0,2.487-0.907,2.859-2.14l9.373-1.704C32.686,54.237,33.755,55,35,55   c1.263,0,2.341-0.787,2.783-1.894l14.371,1.796C52.539,56.114,53.662,57,55,57c1.406,0,2.581-0.976,2.904-2.285l4.467-1.787   l-0.742-1.857l-3.961,1.585C57.172,51.678,56.169,51,55,51c-1.263,0-2.341,0.787-2.783,1.894l-14.371-1.796   C37.461,49.886,36.338,49,35,49c-1.354,0-2.487,0.907-2.859,2.14l-9.373,1.704C22.314,51.763,21.245,51,20,51   c-1.371,0-2.518,0.93-2.874,2.188l-6.388,1.597c-0.085-0.19-0.19-0.368-0.311-0.535L15.303,51H18v-1.798l2.988-1.992   C21.521,47.696,22.223,48,23,48c1.366,0,2.509-0.923,2.87-2.174l11.384-2.627C37.717,44.257,38.772,45,40,45   c1.302,0,2.402-0.839,2.816-2h14.369c0.414,1.161,1.514,2,2.816,2c1.654,0,3-1.346,3-3S61.654,39,60,39z M8,57   c-0.552,0-1-0.448-1-1s0.448-1,1-1s1,0.448,1,1S8.552,57,8,57z M55,53c0.552,0,1,0.448,1,1s-0.448,1-1,1s-1-0.448-1-1   S54.448,53,55,53z M35,51c0.552,0,1,0.448,1,1s-0.448,1-1,1s-1-0.448-1-1S34.448,51,35,51z M20,53c0.552,0,1,0.448,1,1   s-0.448,1-1,1s-1-0.448-1-1S19.448,53,20,53z M60,19c0.552,0,1,0.448,1,1s-0.448,1-1,1s-1-0.448-1-1S59.448,19,60,19z M43,24   c0,0.552-0.448,1-1,1s-1-0.448-1-1s0.448-1,1-1S43,23.448,43,24z M36,31c0.552,0,1,0.448,1,1s-0.448,1-1,1s-1-0.448-1-1   S35.448,31,36,31z M23,46c-0.552,0-1-0.448-1-1s0.448-1,1-1s1,0.448,1,1S23.552,46,23,46z M40,43c-0.552,0-1-0.448-1-1s0.448-1,1-1   s1,0.448,1,1S40.552,43,40,43z M60,43c-0.552,0-1-0.448-1-1s0.448-1,1-1s1,0.448,1,1S60.552,43,60,43z"/><path d="M2,29h24c0.553,0,1-0.447,1-1v-5.056C27,19.667,24.333,17,21.056,17c-1.128,0-2.143-0.587-2.727-1.51   C19.952,14.207,21,12.225,21,10V8c0-3.859-3.141-7-7-7S7,4.141,7,8v2c0,2.226,1.048,4.208,2.672,5.491   C9.089,16.413,8.073,17,6.944,17C3.667,17,1,19.667,1,22.944V28C1,28.553,1.447,29,2,29z M9.627,12.373   c-0.316-0.58-0.516-1.223-0.58-1.912l0.846,0.846L9.627,12.373z M11.24,14.163L11.781,12h4.438l0.541,2.163   C15.968,14.69,15.02,15,14,15S12.032,14.69,11.24,14.163z M18.107,11.307l0.846-0.846c-0.064,0.689-0.264,1.333-0.58,1.912   L18.107,11.307z M14,3c2.628,0,4.766,2.045,4.962,4.624L16.586,10h-5.172L9.038,7.624C9.234,5.045,11.372,3,14,3z M14,17   c0.92,0,1.797-0.183,2.602-0.507c0.122,0.198,0.252,0.388,0.398,0.567V18c0,1.654-1.346,3-3,3s-3-1.346-3-3v-0.939   c0.146-0.179,0.277-0.369,0.398-0.568C12.204,16.817,13.08,17,14,17z M3,22.944C3,20.77,4.77,19,6.944,19   c0.747,0,1.458-0.17,2.11-0.458C9.329,21.042,11.429,23,14,23c2.571,0,4.671-1.958,4.945-4.458C19.598,18.83,20.309,19,21.056,19   C23.23,19,25,20.77,25,22.944V27h-3v-4h-2v4H8v-4H6v4H3V22.944z"/><path d="M3,51h6v-2H3v-8h6v-2H3v-8H1v31c0,0.553,0.447,1,1,1h61v-2H3V51z"/><rect height="2" width="7" x="11" y="39"/><path d="M30,27h7v-2h-6V3h10v7c0,0.553,0.447,1,1,1h7v8h2v-9c0-0.277-0.113-0.527-0.294-0.708l-7.997-7.997   C42.527,1.113,42.277,1,42,1H30c-0.553,0-1,0.447-1,1v24C29,26.553,29.447,27,30,27z M43,4.414L47.586,9H43V4.414z"/><rect height="2" width="6" x="33" y="5"/><rect height="2" width="6" x="33" y="9"/><rect height="2" width="10" x="33" y="13"/><rect height="2" width="10" x="33" y="17"/><rect height="2" width="2" x="45" y="13"/><rect height="2" width="2" x="45" y="17"/><path d="M59,33v-2h-2.101c-0.13-0.637-0.384-1.229-0.732-1.753l1.49-1.49l-1.414-1.414l-1.49,1.49   c-0.524-0.348-1.116-0.602-1.753-0.732V25h-2v2.101c-0.637,0.13-1.229,0.384-1.753,0.732l-1.49-1.49l-1.414,1.414l1.49,1.49   c-0.348,0.524-0.602,1.116-0.732,1.753H45v2h2.101c0.13,0.637,0.384,1.229,0.732,1.753l-1.49,1.49l1.414,1.414l1.49-1.49   c0.524,0.348,1.116,0.602,1.753,0.732V39h2v-2.101c0.637-0.13,1.229-0.384,1.753-0.732l1.49,1.49l1.414-1.414l-1.49-1.49   c0.348-0.524,0.602-1.116,0.732-1.753H59z M53.707,32.293l-1.414,1.414l0.992,0.992C52.894,34.887,52.462,35,52,35   c-1.654,0-3-1.346-3-3c0-0.462,0.113-0.894,0.301-1.285l0.992,0.992l1.414-1.414l-0.992-0.992C51.106,29.113,51.538,29,52,29   c1.654,0,3,1.346,3,3c0,0.462-0.113,0.894-0.301,1.285L53.707,32.293z"/><rect height="2" width="2" x="59" y="25"/><rect height="2" width="2" x="40" y="35"/><rect height="2" width="2" x="42" y="29"/></g></svg>