<?xml version="1.0" ?><svg viewBox="0 0 64 64" xmlns="http://www.w3.org/2000/svg"><title/><g data-name="Layer 9" id="Layer_9"><path d="M28,45a3,3,0,0,0-2.82,2H22.92a7,7,0,0,0-1.32-3.18l2.11-2.12a3,3,0,1,0-1.41-1.41L20.18,42.4A7,7,0,0,0,17,41.08V38.82a3,3,0,1,0-2,0v2.26a7,7,0,0,0-3.18,1.32L9.7,40.29A3,3,0,1,0,8.29,41.7l2.11,2.12A7,7,0,0,0,9.08,47H6.82a3,3,0,1,0,0,2H9.08a7,7,0,0,0,1.32,3.18L8.29,54.3A3,3,0,1,0,9.7,55.71l2.12-2.11A7,7,0,0,0,15,54.92v2.26a3,3,0,1,0,2,0V54.92a7,7,0,0,0,3.18-1.32l2.12,2.11a3,3,0,1,0,1.41-1.41L21.6,52.18A7,7,0,0,0,22.92,49h2.26A3,3,0,1,0,28,45Zm-3-7a1,1,0,1,1-1,1A1,1,0,0,1,25,38Zm-9-3a1,1,0,1,1-1,1A1,1,0,0,1,16,35ZM6,39a1,1,0,1,1,1,1A1,1,0,0,1,6,39ZM4,49a1,1,0,1,1,1-1A1,1,0,0,1,4,49Zm3,9a1,1,0,1,1,1-1A1,1,0,0,1,7,58Zm9,3a1,1,0,1,1,1-1A1,1,0,0,1,16,61Zm10-4a1,1,0,1,1-1-1A1,1,0,0,1,26,57Zm-7.29-7.71-1.42,1.42,1.46,1.46a5,5,0,0,1-5.5,0l1.46-1.46-1.42-1.42-1.46,1.46a5,5,0,0,1,0-5.5l1.46,1.46,1.42-1.42-1.46-1.46a5,5,0,0,1,5.5,0l-1.46,1.46,1.42,1.42,1.46-1.46a5,5,0,0,1,0,5.5ZM28,49a1,1,0,1,1,1-1A1,1,0,0,1,28,49Z"/><path d="M60,45a3,3,0,0,0-2.82,2H54.92a7,7,0,0,0-1.32-3.18l2.11-2.12a3,3,0,1,0-1.41-1.41L52.18,42.4A7,7,0,0,0,49,41.08V38.82a3,3,0,1,0-2,0v2.26a7,7,0,0,0-3.18,1.32L41.7,40.29a3,3,0,1,0-1.41,1.41l2.11,2.12A7,7,0,0,0,41.08,47H38.82a3,3,0,1,0,0,2h2.26a7,7,0,0,0,1.32,3.18L40.29,54.3a3,3,0,1,0,1.41,1.41l2.12-2.11A7,7,0,0,0,47,54.92v2.26a3,3,0,1,0,2,0V54.92a7,7,0,0,0,3.18-1.32l2.12,2.11a3,3,0,1,0,1.41-1.41L53.6,52.18A7,7,0,0,0,54.92,49h2.26A3,3,0,1,0,60,45Zm-3-7a1,1,0,1,1-1,1A1,1,0,0,1,57,38Zm-9-3a1,1,0,1,1-1,1A1,1,0,0,1,48,35ZM38,39a1,1,0,1,1,1,1A1,1,0,0,1,38,39ZM36,49a1,1,0,1,1,1-1A1,1,0,0,1,36,49Zm3,9a1,1,0,1,1,1-1A1,1,0,0,1,39,58Zm9,3a1,1,0,1,1,1-1A1,1,0,0,1,48,61Zm10-4a1,1,0,1,1-1-1A1,1,0,0,1,58,57Zm-7.29-7.71-1.42,1.42,1.46,1.46a5,5,0,0,1-5.5,0l1.46-1.46-1.42-1.42-1.46,1.46a5,5,0,0,1,0-5.5l1.46,1.46,1.42-1.42-1.46-1.46a5,5,0,0,1,5.5,0l-1.46,1.46,1.42,1.42,1.46-1.46a5,5,0,0,1,0,5.5ZM60,49a1,1,0,1,1,1-1A1,1,0,0,1,60,49Z"/><path d="M35,28a3,3,0,0,0-2-2.82V22.92a7,7,0,0,0,3.18-1.32l2.12,2.11a3,3,0,1,0,1.41-1.41L37.6,20.18A7,7,0,0,0,38.92,17h2.26a3,3,0,1,0,0-2H38.92a7,7,0,0,0-1.32-3.18L39.71,9.7A3,3,0,1,0,38.3,8.29L36.18,10.4A7,7,0,0,0,33,9.08V6.82a3,3,0,1,0-2,0V9.08a7,7,0,0,0-3.18,1.32L25.7,8.29A3,3,0,1,0,24.29,9.7l2.11,2.12A7,7,0,0,0,25.08,15H22.82a3,3,0,1,0,0,2h2.26a7,7,0,0,0,1.32,3.18L24.29,22.3a3,3,0,1,0,1.41,1.41l2.12-2.11A7,7,0,0,0,31,22.92v2.26A3,3,0,1,0,35,28Zm7-3a1,1,0,1,1-1-1A1,1,0,0,1,42,25Zm2-10a1,1,0,1,1-1,1A1,1,0,0,1,44,15ZM41,6a1,1,0,1,1-1,1A1,1,0,0,1,41,6ZM32,3a1,1,0,1,1-1,1A1,1,0,0,1,32,3ZM22,7a1,1,0,1,1,1,1A1,1,0,0,1,22,7ZM20,17a1,1,0,1,1,1-1A1,1,0,0,1,20,17Zm3,9a1,1,0,1,1,1-1A1,1,0,0,1,23,26Zm6.29-8.71-1.46,1.46a5,5,0,0,1,0-5.5l1.46,1.46,1.42-1.42-1.46-1.46a5,5,0,0,1,5.5,0l-1.46,1.46,1.42,1.42,1.46-1.46a5,5,0,0,1,0,5.5l-1.46-1.46-1.42,1.42,1.46,1.46a5,5,0,0,1-5.5,0l1.46-1.46ZM32,29a1,1,0,1,1,1-1A1,1,0,0,1,32,29Z"/><path d="M10,22a5,5,0,0,1,5-5V15a7,7,0,0,0-7,7V34h2Z"/><path d="M54,22V34h2V22a7,7,0,0,0-7-7v2A5,5,0,0,1,54,22Z"/></g></svg>