<?xml version="1.0" ?><svg viewBox="0 0 64 64" xmlns="http://www.w3.org/2000/svg"><g id="Virus-Microorganism-Cells-Biology-Science"><path d="M32,2A30,30,0,1,0,62,32,30.034,30.034,0,0,0,32,2Zm0,58A28,28,0,1,1,60,32,28.032,28.032,0,0,1,32,60Z"/><path d="M32,6A26,26,0,1,0,58,32,26.029,26.029,0,0,0,32,6Zm0,50A24,24,0,1,1,56,32,24.028,24.028,0,0,1,32,56Z"/><rect height="2" width="2" x="39" y="36"/><path d="M50,35a1.993,1.993,0,0,0-1.722,1H45.91a5.964,5.964,0,0,0-1.025-2.471l1.676-1.676a2.016,2.016,0,0,0,.51.075,2.005,2.005,0,1,0-1.924-1.489l-1.676,1.676A5.964,5.964,0,0,0,41,31.09V28.722a2,2,0,1,0-2,0V31.09a5.964,5.964,0,0,0-2.471,1.025l-1.676-1.676a1.992,1.992,0,1,0-1.924,1.489,2.016,2.016,0,0,0,.51-.075l1.676,1.676A5.964,5.964,0,0,0,34.09,36H31.722a2,2,0,1,0,0,2H34.09a5.964,5.964,0,0,0,1.025,2.471l-1.676,1.676a1.992,1.992,0,0,0-1.924.51h0a2,2,0,1,0,3.339.9l1.676-1.676A5.964,5.964,0,0,0,39,42.91v2.368a2,2,0,1,0,2,0V42.91a5.964,5.964,0,0,0,2.471-1.025l1.676,1.676a2,2,0,1,0,1.414-1.414l-1.676-1.676A5.964,5.964,0,0,0,45.91,38h2.368A2,2,0,1,0,50,35Zm-7.293,3.293-1.414,1.414.726.726a3.878,3.878,0,0,1-4.038,0l.726-.726-1.414-1.414-.726.726a3.878,3.878,0,0,1,0-4.038l.726.726,1.414-1.414-.726-.726a3.878,3.878,0,0,1,4.038,0l-.726.726,1.414,1.414.726-.726a3.878,3.878,0,0,1,0,4.038Z"/><path d="M28.753,22.167l1.49,1.49,1.414-1.414-1.49-1.49A4.969,4.969,0,0,0,30.9,19H33V17H30.9a4.969,4.969,0,0,0-.732-1.753l1.49-1.49-1.414-1.414-1.49,1.49A4.961,4.961,0,0,0,27,13.1V11H25v2.1a4.961,4.961,0,0,0-1.753.732l-1.49-1.49-1.414,1.414,1.49,1.49A4.969,4.969,0,0,0,21.1,17H19v2h2.1a4.969,4.969,0,0,0,.732,1.753l-1.49,1.49,1.414,1.414,1.49-1.49A4.961,4.961,0,0,0,25,22.9V25h2V22.9A4.961,4.961,0,0,0,28.753,22.167ZM23,18a3,3,0,1,1,3,3A3,3,0,0,1,23,18Z"/><rect height="2" width="2" x="25" y="17"/><rect height="2" width="2" x="13" y="28"/><rect height="2" width="2" x="17" y="35"/><rect height="2" width="2" x="22" y="42"/><rect height="2" width="2" x="22" y="30"/><rect height="2" width="2" x="13" y="39"/><rect height="2" width="2" x="39" y="17"/><rect height="2" width="2" x="45" y="22"/><rect height="2" width="2" x="31" y="51"/></g></svg>