<?xml version="1.0" ?><svg viewBox="0 0 64 64" xmlns="http://www.w3.org/2000/svg"><g id="Outline"><g><path d="M10.851,23.274a2.979,2.979,0,0,0-2.216-.8l-.493.032a1,1,0,1,0,.129,2l.493-.032A.958.958,0,0,1,9.687,25a6.947,6.947,0,0,0-.53,1.537,2.957,2.957,0,0,0-2.864.758,1,1,0,0,0,1.414,1.416.956.956,0,0,1,1.11-.181l.215.107a6.982,6.982,0,0,0,.31,1.517,2.953,2.953,0,0,0-2.1,2.09,1,1,0,0,0,.707,1.225,1.015,1.015,0,0,0,.26.034,1,1,0,0,0,.965-.741.961.961,0,0,1,.871-.712l.245-.014a7.066,7.066,0,0,0,.986,1.115,2.95,2.95,0,0,0-.8,2.218l.032.493a1,1,0,0,0,1,.935c.022,0,.044,0,.066,0a1,1,0,0,0,.933-1.063l-.032-.492A.958.958,0,0,1,13,34.314a6.94,6.94,0,0,0,2.447.658.961.961,0,0,1,0,1.062l-.274.411a1,1,0,0,0,1.664,1.11l.274-.412a2.951,2.951,0,0,0,.414-2.316A6.905,6.905,0,0,0,19,34.315a.958.958,0,0,1,.53.921l-.032.493a1,1,0,0,0,.933,1.063c.022,0,.044,0,.066,0a1,1,0,0,0,1-.935l.032-.494a2.948,2.948,0,0,0-.8-2.212q.22-.2.421-.423a2.947,2.947,0,0,0,2.02.806c.064,0,.129,0,.194-.006l.493-.032a1,1,0,1,0-.129-2l-.493.032a.968.968,0,0,1-.919-.526,6.961,6.961,0,0,0,.662-2.459.964.964,0,0,1,1.055.008l.411.275a1,1,0,1,0,1.11-1.664l-.411-.274a2.955,2.955,0,0,0-3.288,0l-.411.274A1,1,0,0,0,21,28a5,5,0,1,1-.669-2.5.957.957,0,0,0,.9.5,1,1,0,0,0,.864-.558L22.312,25a.949.949,0,0,1,.924-.534l.493.032a1,1,0,1,0,.129-2l-.493-.032a2.974,2.974,0,0,0-2.214.792,6.957,6.957,0,0,0-1.118-.977l.014-.242a.962.962,0,0,1,.712-.872,1,1,0,1,0-.518-1.931,2.957,2.957,0,0,0-2.09,2.1,6.954,6.954,0,0,0-1.595-.312.958.958,0,0,1,0-1.063l.274-.411a1,1,0,0,0-1.664-1.11l-.274.412a2.947,2.947,0,0,0-.414,2.314A6.931,6.931,0,0,0,13,21.686a.957.957,0,0,1-.532-.922l.032-.493a1,1,0,0,0-.933-1.063.989.989,0,0,0-1.063.933l-.032.494a2.949,2.949,0,0,0,.8,2.217C11.127,22.987,10.986,23.127,10.851,23.274Z"/><path d="M15,27a1,1,0,0,0-2,0,4,4,0,0,0,4,4,1,1,0,0,0,0-2A2,2,0,0,1,15,27Z"/><circle cx="18" cy="27" r="1"/><path d="M28.553,41.9a1,1,0,0,0,1.417-1.138L28.4,34.485A13.986,13.986,0,0,0,7.75,16.7a1,1,0,1,0,1.182,1.614A11.988,11.988,0,0,1,26.466,33.861a1,1,0,0,0-.1.732l1.135,4.54L24.233,37.5a1,1,0,0,0-1.047.094A11.888,11.888,0,0,1,16,40,11.983,11.983,0,0,1,6.319,20.932,1,1,0,1,0,4.706,19.75,13.982,13.982,0,0,0,23.878,39.557Z"/><path d="M55.593,50.071a1,1,0,0,0,1.075-.169,15.976,15.976,0,0,0-7.292-27.534l1.82-3.153a1,1,0,0,0-.366-1.366l-.866-.5,1-1.732,1.732,1a1.006,1.006,0,0,0,.5.133,1,1,0,0,0,.866-.5l2-3.464a1,1,0,0,0-.23-1.272L46.439,3.783a1,1,0,0,0-1.5.272l-3,5.2a1,1,0,0,0,.367,1.367l1.732,1-1,1.731-.866-.5a1,1,0,0,0-1.366.366l-2.5,4.328a1,1,0,0,0,.365,1.369l3.464,2-3,5.2-2.6-1.5,1.536-2.66a1,1,0,1,0-1.732-1l-2.029,3.516-.007.011-.006.011L31.8,28.8a1,1,0,0,0,.366,1.366l.866.5L30.536,35a1,1,0,0,0,.366,1.366l5.2,3a.994.994,0,0,0,.5.134.983.983,0,0,0,.258-.034A1.007,1.007,0,0,0,37.464,39l2.5-4.33.866.5a1,1,0,0,0,.5.134,1.035,1.035,0,0,0,.259-.034A1,1,0,0,0,42.2,34.8l3.336-5.778c.156-.009.31-.026.468-.026a9,9,0,0,1,8.934,10.085,1,1,0,1,0,1.986.241A11.154,11.154,0,0,0,57,38,11,11,0,0,0,46.682,27.035l1.627-2.819A13.958,13.958,0,0,1,56.948,46.7,9,9,0,0,0,39,47.667V56H36a7.011,7.011,0,0,1-6.929-6H31.1A5.008,5.008,0,0,0,36,54a1,1,0,0,0,0-2,2.993,2.993,0,0,1-2.86-2.143A5,5,0,0,0,37,45a1,1,0,0,0-1-1H22a1,1,0,0,0-1,1,5.006,5.006,0,0,0,5,5h1.059a8.991,8.991,0,0,0,3.3,6H28a5.006,5.006,0,0,0-5,5,1,1,0,0,0,1,1H36a1,1,0,0,0,0-2H25.171A3.006,3.006,0,0,1,28,58H39v3a1,1,0,0,0,1,1h8a9.01,9.01,0,0,0,9-9,1,1,0,0,0-2,0,7.008,7.008,0,0,1-7,7H41V47.667a7,7,0,0,1,14,0v1.491A1,1,0,0,0,55.593,50.071ZM46.079,6.078l7.827,6.443L52.83,14.385l-4.33-2.5-2.6-1.5h0l-1.731-1Zm-.311,6.54,3.463,2-1,1.732-3.463-2ZM38.231,33.67l-2,3.464-3.462-2,2-3.464,1.732,1Zm2.733-.732-3.464-2-2.6-1.5h0l-.866-.5,1.5-2.6,3.464,2a1,1,0,0,0,1.366-.366l4-6.929A1,1,0,0,0,44,19.679l-3.464-2,1.5-2.6,3.464,2,2.6,1.5h0l.865.5-2.042,3.536,0,.007ZM23.171,46H34.829A3.006,3.006,0,0,1,32,48H26A3.006,3.006,0,0,1,23.171,46Z"/><path d="M48,43a5,5,0,1,0,5,5A5.006,5.006,0,0,0,48,43Zm0,8a3,3,0,1,1,3-3A3,3,0,0,1,48,51Z"/><circle cx="48" cy="48" r="1"/></g></g></svg>