<?xml version="1.0" ?><!DOCTYPE svg  PUBLIC '-//W3C//DTD SVG 1.1//EN'  'http://www.w3.org/Graphics/SVG/1.1/DTD/svg11.dtd'><svg enable-background="new 0 0 64 64" height="64px" version="1.1" viewBox="0 0 64 64" width="64px" xml:space="preserve" xmlns="http://www.w3.org/2000/svg" xmlns:xlink="http://www.w3.org/1999/xlink"><g id="_x35_0_China"/><g id="_x34_9_fever"/><g id="_x34_8_Thermo_Head"/><g id="_x34_7_Call_Hospital"/><g id="_x34_6_Hospital_Bed"/><g id="_x34_5_Eye"/><g id="_x34_4_Ambulance"/><g id="_x34_3_disinfectant"/><g id="_x34_2_Antibody"/><g id="_x34_1_Death"/><g id="_x34_0_Isolation_Room"/><g id="_x33_9_Soap"/><g id="_x33_8_Corona_Virus"/><g id="_x33_7_Medic"/><g id="_x33_6_Vitamin"/><g id="_x33_5_Diare"/><g id="_x33_4_Hand_sanitizer"/><g id="_x33_3_Soap"/><g id="_x33_2_Wash_Hand"/><g id="_x33_1_Wash_with_Soap"/><g id="_x33_0_Stethoscope"/><g id="_x32_9_Lockdown"/><g id="_x32_8_Bat"/><g id="_x32_7_Pills"/><g id="_x32_6_Airborne"/><g id="_x32_5_Lockdown"/><g id="_x32_4_Siocial_Distance"/><g id="_x32_3_Thermometer"/><g id="_x32_2_Hand_Soap"/><g id="_x32_1_Alcohol"/><g id="_x32_0_Vaccine"/><g id="_x31_9_Clinic"/><g id="_x31_8_Check_Up"/><g id="_x31_7_Pneumonia"/><g id="_x31_6_Masker"/><g id="_x31_5_Use_Masker"/><g id="_x31_4_No_Travel"/><g id="_x31_3_No_crowd"/><g id="_x31_2_Work_from_Home"/><g id="_x31_1_Quarantine"/><g id="_x31_0_Face_Contact"/><g id="_x30_9_Headache"/><g id="_x30_8_Puke"/><g id="_x30_7_Sore_Throath"/><g id="_x30_6_Breathe"/><g id="_x30_5_Cough"/><g id="_x30_4_Blood"/><g id="_x30_3_Microscope"><g><path d="M28,50c1.104,0,2-0.896,2-2s-0.896-2-2-2H18c-1.104,0-2,0.896-2,2s0.896,2,2,2H28z"/><path d="M44,38c-3.309,0-6,2.691-6,6s2.691,6,6,6s6-2.691,6-6S47.309,38,44,38z M44,46c-1.103,0-2-0.897-2-2s0.897-2,2-2    s2,0.897,2,2S45.103,46,44,46z"/><path d="M48,10H30c0-1.104-0.896-2-2-2V2c0-1.104-0.896-2-2-2h-8c-1.104,0-2,0.896-2,2v6c-1.104,0-2,0.896-2,2v16    c0,1.104,0.896,2,2,2v6c0,1.104,0.896,2,2,2h8c1.104,0,2-0.896,2-2v-6c1.104,0,2-0.896,2-2h8c1.103,0,2,0.897,2,2s-0.897,2-2,2    c-3.309,0-6,2.691-6,6v4H14c-1.104,0-2,0.896-2,2s0.896,2,2,2h18v8H14c-3.309,0-6,2.691-6,6v4c0,1.104,0.896,2,2,2h40    c3.309,0,6-2.691,6-6V18C56,13.589,52.411,10,48,10z M18,24V12h8v12H18z M20,4h4v4h-4V4z M24,32h-4v-4h4V32z M52,58    c0,1.103-0.897,2-2,2H12v-2c0-1.103,0.897-2,2-2h20c1.104,0,2-0.896,2-2V36c0-1.103,0.897-2,2-2c3.309,0,6-2.691,6-6s-2.691-6-6-6    h-8v-8h18c2.206,0,4,1.794,4,4V58z"/></g></g><g id="_x30_2_Pandemic"/><g id="_x30_1_Corona_Virus"/></svg>