<?xml version="1.0" ?><!DOCTYPE svg  PUBLIC '-//W3C//DTD SVG 1.1//EN'  'http://www.w3.org/Graphics/SVG/1.1/DTD/svg11.dtd'><svg enable-background="new 0 0 64 64" height="64px" version="1.1" viewBox="0 0 64 64" width="64px" xml:space="preserve" xmlns="http://www.w3.org/2000/svg" xmlns:xlink="http://www.w3.org/1999/xlink"><g id="_x35_0_China"/><g id="_x34_9_fever"/><g id="_x34_8_Thermo_Head"/><g id="_x34_7_Call_Hospital"/><g id="_x34_6_Hospital_Bed"><path d="M62,12c-1.104,0-2,0.896-2,2v12h-7.516l3.758-3.757C57.376,21.109,58,19.603,58,18s-0.624-3.109-1.757-4.241   C55.11,12.625,53.604,12,52,12s-3.11,0.625-4.242,1.758L43.515,18H12c-3.309,0-6,2.691-6,6v2H4V16c0-1.104-0.896-2-2-2   s-2,0.896-2,2v20c0,1.104,0.896,2,2,2h13.172l-2.586,2.586c-0.002,0.002-0.003,0.004-0.005,0.006C11.798,40.217,10.925,40,10,40   c-3.309,0-6,2.691-6,6s2.691,6,6,6c2.606,0,4.823-1.674,5.65-4H48.35c0.827,2.326,3.044,4,5.65,4c3.309,0,6-2.691,6-6s-2.691-6-6-6   c-0.925,0-1.798,0.217-2.581,0.592c-0.002-0.002-0.003-0.004-0.005-0.006L48.828,38H62c1.104,0,2-0.896,2-2V14   C64,12.896,63.104,12,62,12z M10,24c0-1.103,0.897-2,2-2h32.343c0.53,0,1.039-0.211,1.414-0.586l4.83-4.829   c0.754-0.754,2.071-0.756,2.827,0.002C53.792,16.964,54,17.466,54,18s-0.208,1.036-0.586,1.414l-6,6C47.041,25.786,46.526,26,46,26   H10V24z M10,48c-1.103,0-2-0.897-2-2s0.897-2,2-2s2,0.897,2,2S11.103,48,10,48z M54,44c1.103,0,2,0.897,2,2s-0.897,2-2,2   s-2-0.897-2-2S52.897,44,54,44z M48.586,43.414c0.002,0.002,0.004,0.003,0.006,0.005c-0.091,0.188-0.171,0.382-0.242,0.581H15.65   c-0.071-0.199-0.151-0.393-0.242-0.581c0.002-0.002,0.004-0.003,0.006-0.005L20.828,38h22.344L48.586,43.414z M60,34H4v-4h4h38h14   V34z"/></g><g id="_x34_5_Eye"/><g id="_x34_4_Ambulance"/><g id="_x34_3_disinfectant"/><g id="_x34_2_Antibody"/><g id="_x34_1_Death"/><g id="_x34_0_Isolation_Room"/><g id="_x33_9_Soap"/><g id="_x33_8_Corona_Virus"/><g id="_x33_7_Medic"/><g id="_x33_6_Vitamin"/><g id="_x33_5_Diare"/><g id="_x33_4_Hand_sanitizer"/><g id="_x33_3_Soap"/><g id="_x33_2_Wash_Hand"/><g id="_x33_1_Wash_with_Soap"/><g id="_x33_0_Stethoscope"/><g id="_x32_9_Lockdown"/><g id="_x32_8_Bat"/><g id="_x32_7_Pills"/><g id="_x32_6_Airborne"/><g id="_x32_5_Lockdown"/><g id="_x32_4_Siocial_Distance"/><g id="_x32_3_Thermometer"/><g id="_x32_2_Hand_Soap"/><g id="_x32_1_Alcohol"/><g id="_x32_0_Vaccine"/><g id="_x31_9_Clinic"/><g id="_x31_8_Check_Up"/><g id="_x31_7_Pneumonia"/><g id="_x31_6_Masker"/><g id="_x31_5_Use_Masker"/><g id="_x31_4_No_Travel"/><g id="_x31_3_No_crowd"/><g id="_x31_2_Work_from_Home"/><g id="_x31_1_Quarantine"/><g id="_x31_0_Face_Contact"/><g id="_x30_9_Headache"/><g id="_x30_8_Puke"/><g id="_x30_7_Sore_Throath"/><g id="_x30_6_Breathe"/><g id="_x30_5_Cough"/><g id="_x30_4_Blood"/><g id="_x30_3_Microscope"/><g id="_x30_2_Pandemic"/><g id="_x30_1_Corona_Virus"/></svg>